<?xml version="1.0" encoding="UTF-8"?>
<svg version="1.1" viewBox="0 0 900 900" width="225" height="225" xmlns="http://www.w3.org/2000/svg">
<path transform="translate(763,164)" d="m0 0 4 4 15 26 10 21 9 24 6 23 4 22 1 11 1 27 1 123 3 47 6 42 6 29 6 24 11 35 10 26 11 25 12 25 11 20 10 14v3l-6-2-14-10-33-22-23-16-18-12-28-19-3-1-2 5-7 9-13 18-8 11-12 16-13 18-28 38-2 3-4-1-16-13-42-33-15-12-9-7-7-5-4 5-8 11-14 19-11 15-14 19-8 11-14 19-8 11-14 19-8 11-14 19-10 14-10 13-10 14-4-5-10-14-12-16-26-36-16-21-12-17-42-57-13-18-11-15-4 1-14 11-11 9-13 10-15 12-14 11-16 13-4 3h-3l-14-19-11-15-13-18-9-12-13-18-12-16-13-18-3-1-24 16-16 11-19 13-24 16-22 15-11 8-3 2h-3l1-4 10-15 15-29 13-27 11-28 12-36 8-30 8-41 4-29 3-39 1-30 1-126 2-21 5-24 6-21 11-27 10-20 10-17 4-6 4 1 9 11 8 8 7 8 17 17 16 14-1 4-6 10-8 18-4 15-1 9v10l3 16 5 13 8 13 9 10 7 7 15 10 16 8 16 6 23 5 21 2 12 1-1 12-2 20-1 13-8 5-29 14-45 22-25 12-7 3 2 2 23 11 68 32 16 10 10 9 14 14 13 17 10 15 9 15 10 18 11 23 12 27 18 46 15 42 18 52 7 20h2l10-30 17-48 17-47 12-30 11-26 18-37 11-19 16-24 11-14 4-5 12-12 12-9 16-9 27-13 28-13 24-11 8-4h3v-2l-6-2-16-8-29-14-19-9-16-8-19-9-10-5-1-2-2-31-2-12 2-2h16l27-4 20-6 16-7 16-9 11-9 10-10 9-14 5-12 3-12v-23l-4-17-8-18-7-12v-4l10-8 16-15 7-7 7-8 8-8 9-11z" fill="#fff"/>
<path transform="translate(406)" d="m0 0h93l3 1v2l11 1 33 6 27 7 24 8 26 11 16 8 17 9 19 12 14 10 14 11 7 5 12-1 16-5 16-8 12-7 14-11 8-7 2-3h2l2-4 3-2 1 3-8 16-9 15-8 12-11 14-11 13-11 12-22 22h-2v2l-11 9-11 10-14 11-18 14-23 16-23 15-18 11-21 12-23 12-29 14-15 6-10-6-14-6-14-4-16-2h-10l-18 2-15 4-16 7-6 4h-5l-13-6-28-13-30-16-20-12-24-15-23-16-19-14-14-11-14-12-11-9-17-16-22-22-7-8-13-16-11-16-10-17-7-12-1-6 4 2 13 13 16 12 16 9 16 7 17 4 8-1 13-11 18-13 16-10 21-12 25-12 29-11 27-8 38-8 26-4z" fill="#fff"/>
<path transform="translate(443,311)" d="m0 0h12l15 3 16 8 12 9 8 7 11 14 8 15 5 15 4 20 1 9 1 38 2 6 38 19 14 6v3l-19 11-12 8-13 10-12 11-11 11-9 11-10 14-9 15-12 23-11 25-18 46-3 8h-2l-3-6-6-17-14-35-13-29-12-22-10-15-10-13-9-10v-2h-2l-13-13-17-13-20-12-12-6v-2l38-18 13-7 4-4 1-5v-24l2-22 4-20 6-16 5-10 7-10 12-13 13-10 16-8z" fill="#fff"/>
<path transform="translate(239,259)" d="m0 0 5 1 12 7 15 9 18 10 22 12 23 11 23 10v3l-21 7-15 3-10 1h-12l-20-3-16-6-11-6-10-9-4-5-4-9-1-5v-11z" fill="#fff"/>
<path transform="translate(656,259)" d="m0 0h4l5 13 2 10v8l-4 11-6 9-9 8-16 8-18 5-17 2h-9l-21-3-20-6-5-2v-3l28-12 34-17 18-10 17-10 16-10z" fill="#fff"/>
</svg>
